mastitorrents.com
         
http://mastitorrents.com/forums/index.php
        
http://thepiratebay.org/user/HDvideos/0/7

Species.Quadrilogy.Unrated.720p.BRRip Audio Hindi-Eng@Mastitorrents

Species 1 (1995)

Format : Matroska
File size : 1.00 GiB
Duration : 1h 48mn
Overall bit rate : 1 321 Kbps
Encoded date : UTC 2010-12-05 04:15:13
Writing application : mkvmerge v2.2.0 13:20:25
Writing library : libebml v0.7.7 

Video
ID : 1
Format : AVC
Format/Info : Advanced Video Codec
Format profile : HighL4.1
Format settings, CABAC : Yes
Format settings, ReFrames : 6 frames
Muxing mode : Container profile=Unknown4.1
Codec ID : V_MPEG4/ISO/AVC
Duration : 1h 48mn
Nominal bit rate : 1 000 Kbps
Width : 848 pixels
Height : 368 pixels
Display aspect ratio : 2.35:1
Frame rate : 23.976 fps
Color space : YUV
Chroma subsampling : 4:2:0
Bit depth : 8 bits
Scan type : Progressive
Bits/(Pixel*Frame) : 0.134
Writing library : x264 core 80 r1376M 3feaec2
Language : English

Audio #1
ID : 2
Format : AAC
Format/Info : Advanced Audio Codec
Format version : Version 4
Format profile : LC
Format settings, SBR : Yes
Format settings, PS : No
Codec ID : A_AAC
Duration : 1h 48mn
Channel(s) : 6 channels
Channel positions : Front: L C R, Side: L R, LFE
Sampling rate : 48.0 KHz
Language : English

Audio #2
ID : 3
Format : AAC
Format/Info : Advanced Audio Codec
Format version : Version 4
Format profile : LC
Format settings, SBR : No
Codec ID : A_AAC
Duration : 1h 48mn
Channel(s) : 2 channels
Channel positions : Front: L R
Sampling rate : 44.1 KHz
Language : Hindi


Species 2 (1998)

Format : AVI
File size : 954 MiB
Duration : 1h 29mn

Video
ID
Format : MPEG-4 Visual
Codec ID/Hint : DivX 5
Duration : 1h 29mn
Bit rate : 1 241 Kbps
Width : 848 pixels
Height : 432 pixels
Display aspect ratio : 1.963
Frame rate : 25.000 fps

Audio #1
ID
Codec ID/Hint : MP3
Duration : 1h 29mn
Bit rate mode : Constant
Bit rate : 128 Kbps
Channel(s) : 2 channels
Language : English

Audio #2
ID
Codec ID/Hint : MP3
Duration : 1h 24mn
Bit rate mode : Constant
Bit rate : 128 Kbps
Channel(s) : 2 channels
Language : Hindi


Species 3 (2004)

Format : AVI
Format/Info : Audio Video Interleave
Format profile : OpenDML
File size : 795 MiB
Duration : 1h 47mn
Overall bit rate : 1 036 Kbps
Writing application : AVI-Mux GUI 1.17.8.3, Feb 16 201019:42:50

Video
ID : 0
Format : MPEG-4 Visual
Format profile : Advanced SimpleL5
Format settings, BVOP : Yes
Format settings, QPel : No
Format settings, GMC : No warppoints
Format settings, Matrix : Default (H.263)
Muxing mode : Packed bitstream
Codec ID : XVID
Codec ID/Hint : XviD
Duration : 1h 47mn
Bit rate : 770 Kbps
Width : 544 pixels
Height : 304 pixels
Display aspect ratio : 16:9
Frame rate : 25.000 fps
Color space : YUV
Chroma subsampling : 4:2:0
Bit depth : 8 bits
Scan type : Progressive
Bits/(Pixel*Frame) : 0.186
Stream size : 591 MiB (74%)
Writing library : XviD 1.0.3 (UTC 2004-12-20)

Audio #1
ID : 1
Format : MPEG Audio
Format version : Version 1
Format profile : Layer 3
Mode : Joint stereo
Codec ID : 55
Codec ID/Hint : MP3
Duration : 1h 47mn
Bit rate mode : Variable
Bit rate : 128 Kbps
Channel(s) : 2 channels
Sampling rate : 48.0 KHz
Stream size : 98.8 MiB (12%)
Alignment : Aligned on interleaves
Interleave, duration : 24 ms (0.60 video frame)
Interleave, preload duration : 65 ms
Writing library : LAME3.90.
Language : English

Audio #2
ID : 2
Format : MPEG Audio
Format version : Version 1
Format profile : Layer 3
Mode : Joint stereo
Mode extension : MS Stereo
Codec ID : 55
Codec ID/Hint : MP3
Duration : 1h 47mn
Bit rate mode : Constant
Bit rate : 128 Kbps
Channel(s) : 2 channels
Sampling rate : 48.0 KHz
Stream size : 98.2 MiB (12%)
Alignment : Aligned on interleaves
Interleave, duration : 798 ms (19.95 video frames)
Interleave, preload duration : 216 ms
Writing library : LAME3.97
Language : Hindi


Species The Awakening (2007)

Format : AVI
Format/Info : Audio Video Interleave
Format profile : OpenDML
File size : 787 MiB
Duration : 1h 38mn
Overall bit rate : 1 122 Kbps
Writing application : AVI-Mux GUI 1.17.8.3, Feb 16 201019:42:50

Video
ID
Format : MPEG-4 Visual
Muxing mode : Packed bitstream
Codec ID : XVID
Codec ID/Hint : XviD
Duration : 1h 38mn
Bit rate : 856 Kbps
Width : 640 pixels
Height : 352 pixels
Display aspect ratio : 16:9
Frame rate : 23.976 fps
Color space : YUV
Chroma subsampling : 4:2:0
Bit depth : 8 bits
Scan type : Progressive
Bits/(Pixel*Frame) : 0.158
Stream size : 601 MiB (76%)
Writing library : XviD 1.2.0.dev47 (UTC 2006-11-01)

Audio #1
ID
Format : MPEG Audio
Format profile : Layer 3
Mode : Joint stereo
Codec ID/Hint : MP3
Duration : 1h 38mn
Bit rate mode : Variable
Bit rate : 128 Kbps
Channel(s) : 2 channels
Sampling rate : 48.0 KHz
Language : English 

Audio #2
ID
Format : MPEG Audio
Format profile : Layer 3
Mode : Joint stereo
Codec ID/Hint : MP3
Duration : 1h 38mn
Bit rate mode : Constant
Bit rate : 128 Kbps
Channel(s) : 2 channels
Sampling rate : 48.0 KHz
Language : Hindi

credits to ripper

